<svg width="211" height="144" viewBox="0 0 211 144" fill="none" xmlns="http://www.w3.org/2000/svg">
<line x1="104.221" y1="2.35448" x2="208.714" y2="72.0166" stroke="white" stroke-width="3" stroke-linecap="round"/>
<line x1="104.221" y1="2.35448" x2="208.714" y2="72.0166" stroke="#A3A3A3" stroke-width="3" stroke-linecap="round"/>
<line x1="1.5" y1="-1.5" x2="127.085" y2="-1.5" transform="matrix(0.83205 -0.5547 -0.5547 -0.83205 102.141 141.807)" stroke="white" stroke-width="3" stroke-linecap="round"/>
<line x1="1.5" y1="-1.5" x2="127.085" y2="-1.5" transform="matrix(0.83205 -0.5547 -0.5547 -0.83205 102.141 141.807)" stroke="#A3A3A3" stroke-width="3" stroke-linecap="round"/>
<line x1="56.3497" y1="2.35448" x2="160.843" y2="72.0166" stroke="white" stroke-width="3" stroke-linecap="round"/>
<line x1="56.3497" y1="2.35448" x2="160.843" y2="72.0166" stroke="#A3A3A3" stroke-width="3" stroke-linecap="round"/>
<line x1="1.5" y1="-1.5" x2="127.085" y2="-1.5" transform="matrix(0.83205 -0.5547 -0.5547 -0.83205 54.2695 141.807)" stroke="white" stroke-width="3" stroke-linecap="round"/>
<line x1="1.5" y1="-1.5" x2="127.085" y2="-1.5" transform="matrix(0.83205 -0.5547 -0.5547 -0.83205 54.2695 141.807)" stroke="#A3A3A3" stroke-width="3" stroke-linecap="round"/>
<line x1="2.85454" y1="2.35546" x2="107.348" y2="72.0175" stroke="white" stroke-width="3" stroke-linecap="round"/>
<line x1="2.85454" y1="2.35546" x2="107.348" y2="72.0175" stroke="#A3A3A3" stroke-width="3" stroke-linecap="round"/>
<line x1="1.5" y1="-1.5" x2="127.085" y2="-1.5" transform="matrix(0.83205 -0.5547 -0.5547 -0.83205 0.774414 141.808)" stroke="white" stroke-width="3" stroke-linecap="round"/>
<line x1="1.5" y1="-1.5" x2="127.085" y2="-1.5" transform="matrix(0.83205 -0.5547 -0.5547 -0.83205 0.774414 141.808)" stroke="#A3A3A3" stroke-width="3" stroke-linecap="round"/>
</svg>
