<svg width="68" height="67" viewBox="0 0 68 67" fill="none" xmlns="http://www.w3.org/2000/svg">
<rect x="0.921875" y="0.189453" width="66.7717" height="66.4315" rx="33.2158" fill="#E24FE3"/>
<path d="M22.6402 25.9768V54.621H13.451V25.9768H22.6402ZM23.225 17.1321C23.2435 18.5388 22.7748 19.7142 21.8187 20.6584C20.8627 21.6026 19.605 22.0747 18.0456 22.0747H17.9899C16.4676 22.0747 15.2424 21.6026 14.3142 20.6584C13.386 19.7142 12.9219 18.5388 12.9219 17.1321C12.9219 15.7061 13.3999 14.5259 14.356 13.5913C15.312 12.6567 16.5604 12.1895 18.1013 12.1895C19.6421 12.1895 20.8766 12.6567 21.8048 13.5913C22.733 14.5259 23.2064 15.7061 23.225 17.1321ZM55.6936 38.2033V54.621H46.5322V39.3017C46.5322 37.2784 46.1563 35.6935 45.4044 34.5469C44.6526 33.4004 43.4784 32.8271 41.8819 32.8271C40.7123 32.8271 39.7331 33.1595 38.9441 33.8243C38.1551 34.4891 37.5657 35.3129 37.1759 36.2957C36.9717 36.8737 36.8696 37.6542 36.8696 38.6369V54.621H27.7082C27.7453 46.9325 27.7639 40.6988 27.7639 35.9199C27.7639 31.1411 27.7546 28.2892 27.736 27.3642L27.7082 25.9768H36.8696V30.139H36.8139C37.1852 29.5224 37.5657 28.9829 37.9556 28.5204C38.3454 28.0579 38.8699 27.5569 39.5289 27.0174C40.1879 26.4778 40.9954 26.0587 41.9515 25.76C42.9075 25.4614 43.9703 25.312 45.1399 25.312C48.3143 25.312 50.8669 26.4056 52.7976 28.5927C54.7282 30.7798 55.6936 33.9833 55.6936 38.2033Z" fill="black"/>
</svg>
