<svg width="62" height="63" viewBox="0 0 62 63" fill="none" xmlns="http://www.w3.org/2000/svg">
<rect x="0.921875" y="0.0888672" width="61" height="62.6328" rx="30.5" fill="#E24FE3"/>
<path d="M53.9219 17.4777C52.2306 18.2114 50.4421 18.6965 48.6119 18.9177C50.5428 17.7642 51.9897 15.9495 52.6844 13.8102C50.8699 14.8904 48.8836 15.6514 46.8119 16.0602C45.4271 14.5585 43.5831 13.5589 41.5689 13.2181C39.5548 12.8774 37.4846 13.2148 35.6829 14.1774C33.8812 15.14 32.45 16.6734 31.6137 18.5371C30.7774 20.4008 30.5833 22.4893 31.0619 24.4752C27.3931 24.2897 23.8044 23.3344 20.5288 21.6714C17.2533 20.0085 14.3643 17.675 12.0494 14.8227C11.2374 16.2406 10.8108 17.8463 10.8119 19.4802C10.809 20.9976 11.1814 22.4921 11.8958 23.8307C12.6103 25.1694 13.6447 26.3106 14.9069 27.1527C13.4398 27.1128 12.0041 26.7191 10.7219 26.0052V26.1177C10.7329 28.2437 11.4779 30.3007 12.8308 31.9406C14.1838 33.5806 16.0617 34.7029 18.1469 35.1177C17.3442 35.362 16.5108 35.4908 15.6719 35.5002C15.0911 35.4934 14.5118 35.4408 13.9394 35.3427C14.5332 37.1715 15.6823 38.7698 17.2268 39.9151C18.7713 41.0604 20.6344 41.6957 22.5569 41.7327C19.3106 44.2871 15.3026 45.6811 11.1719 45.6927C10.4198 45.6952 9.66828 45.6501 8.92188 45.5577C13.1393 48.2808 18.0542 49.7263 23.0744 49.7202C26.5387 49.7562 29.9754 49.1015 33.1839 47.7944C36.3923 46.4873 39.3082 44.554 41.7611 42.1073C44.214 39.6607 46.1548 36.7498 47.4701 33.5448C48.7855 30.3397 49.449 26.9046 49.4219 23.4402V22.2477C51.1874 20.931 52.7102 19.3169 53.9219 17.4777Z" fill="black"/>
</svg>
