<svg width="46" height="45" viewBox="0 0 46 45" fill="none" xmlns="http://www.w3.org/2000/svg">
<path d="M23.0001 0C10.2991 0 0 10.3035 0 23.0139C0 33.1822 6.59021 41.8087 15.7289 44.8519C16.8783 45.0649 17.3004 44.3526 17.3004 43.7447C17.3004 43.196 17.279 41.383 17.2692 39.46C10.8704 40.8521 9.52022 36.7446 9.52022 36.7446C8.47398 34.0845 6.9665 33.3773 6.9665 33.3773C4.8798 31.9489 7.1238 31.9781 7.1238 31.9781C9.43346 32.1406 10.6496 34.3498 10.6496 34.3498C12.701 37.8682 16.0302 36.8509 17.3426 36.2631C17.549 34.7754 18.1452 33.7603 18.8029 33.1856C13.6943 32.6035 8.3239 30.6302 8.3239 21.812C8.3239 19.2995 9.2224 17.2464 10.6938 15.6348C10.455 15.055 9.66778 12.7144 10.9166 9.54435C10.9166 9.54435 12.848 8.92579 17.2433 11.9034C19.0778 11.3933 21.0454 11.1377 23.0001 11.1291C24.9547 11.1377 26.9238 11.3933 28.762 11.9034C33.152 8.92579 35.0807 9.54435 35.0807 9.54435C36.3326 12.7144 35.545 15.055 35.3062 15.6348C36.7808 17.2464 37.6732 19.2993 37.6732 21.812C37.6732 30.6511 32.2927 32.5976 27.1712 33.1672C27.9961 33.8814 28.7311 35.2821 28.7311 37.4291C28.7311 40.5083 28.7044 42.9867 28.7044 43.7447C28.7044 44.3571 29.1184 45.0748 30.2844 44.8488C39.4181 41.8022 46 33.1788 46 23.0139C46 10.3035 35.7023 0 23.0001 0Z" fill="black"/>
<path d="M8.61407 32.7838C8.56357 32.8981 8.38354 32.9324 8.21993 32.854C8.05307 32.7789 7.95927 32.623 8.01339 32.5082C8.063 32.3905 8.24302 32.3577 8.40952 32.4367C8.57673 32.5116 8.67198 32.669 8.61407 32.7838ZM9.74545 33.7939C9.63578 33.8957 9.4213 33.8484 9.27573 33.6875C9.12529 33.5271 9.09715 33.3127 9.20844 33.2092C9.32155 33.1076 9.52953 33.1551 9.68033 33.3157C9.83078 33.478 9.86 33.6912 9.74527 33.794M10.5217 35.0862C10.3806 35.1842 10.1501 35.0923 10.0077 34.8876C9.86685 34.6831 9.86685 34.4377 10.0108 34.3393C10.1537 34.2409 10.3806 34.3294 10.5249 34.5324C10.6656 34.7405 10.6656 34.986 10.5215 35.0864M11.8341 36.583C11.7081 36.722 11.4396 36.6848 11.243 36.4949C11.0421 36.3094 10.986 36.0461 11.1124 35.9069C11.2399 35.7676 11.51 35.8067 11.7081 35.995C11.9077 36.1802 11.9685 36.4455 11.8341 36.583ZM13.5305 37.0884C13.4751 37.2685 13.2164 37.3505 12.956 37.274C12.6958 37.1951 12.5256 36.9839 12.5781 36.8018C12.6322 36.6204 12.8919 36.535 13.1544 36.617C13.4141 36.6955 13.5846 36.905 13.5305 37.0884ZM15.4613 37.3027C15.4678 37.4925 15.2469 37.6499 14.9734 37.6534C14.6983 37.6593 14.4759 37.5057 14.473 37.3191C14.473 37.1274 14.6889 36.9715 14.9638 36.9669C15.2373 36.9615 15.4613 37.114 15.4613 37.3027ZM17.3579 37.2299C17.3907 37.4151 17.2006 37.6053 16.9291 37.6559C16.6622 37.7046 16.415 37.5904 16.3809 37.4068C16.3478 37.2169 16.5415 37.0269 16.8079 36.9776C17.0799 36.9303 17.3233 37.0417 17.3579 37.2299Z" fill="black"/>
</svg>
