<svg width="53" height="51" viewBox="0 0 53 51" fill="none" xmlns="http://www.w3.org/2000/svg">
<path d="M0 5.92424C0 4.20704 0.596864 2.79037 1.79054 1.67424C2.98422 0.558064 4.53605 0 6.44595 0C8.32177 0 9.83943 0.549461 10.999 1.64848C12.1927 2.78182 12.7896 4.25855 12.7896 6.07879C12.7896 7.72727 12.2098 9.10098 11.0502 10.2C9.85652 11.3333 8.28764 11.9 6.34363 11.9H6.29247C4.41665 11.9 2.89899 11.3333 1.73938 10.2C0.579777 9.06667 0 7.6414 0 5.92424ZM0.665058 51V16.5879H12.0222V51H0.665058ZM18.3147 51H29.6718V31.7848C29.6718 30.5828 29.8083 29.6555 30.0811 29.003C30.5585 27.8353 31.2833 26.8479 32.2553 26.0409C33.2273 25.2338 34.4466 24.8303 35.9131 24.8303C39.733 24.8303 41.6429 27.4232 41.6429 32.6091V51H53V31.2697C53 26.1869 51.8063 22.3318 49.4189 19.7045C47.0315 17.0773 43.8768 15.7636 39.9546 15.7636C35.555 15.7636 32.1274 17.6697 29.6718 21.4818V21.5848H29.6207L29.6718 21.4818V16.5879H18.3147C18.3829 17.6869 18.417 21.104 18.417 26.8394C18.417 32.5747 18.3829 40.6282 18.3147 51Z" fill="black"/>
</svg>
